<?xml version="1.0" encoding="utf-8"?>
<!-- Generator: Adobe Illustrator 16.0.0, SVG Export Plug-In . SVG Version: 6.00 Build 0)  -->
<!DOCTYPE svg PUBLIC "-//W3C//DTD SVG 1.1//EN" "http://www.w3.org/Graphics/SVG/1.1/DTD/svg11.dtd">
<svg version="1.1" id="Layer_1" xmlns="http://www.w3.org/2000/svg" xmlns:xlink="http://www.w3.org/1999/xlink" x="0px" y="0px"
	 width="2834.646px" height="2834.646px" viewBox="0 0 2834.646 2834.646" enable-background="new 0 0 2834.646 2834.646"
	 xml:space="preserve">
<g>
	<g>
		<g>
			<g>
				<path fill="#1F2022" d="M236.914,2004.793l72.112-72.796c4.555-4.555,8.087-8.886,10.595-12.987
					c2.504-4.101,3.759-7.574,3.759-10.424c0-3.645-2.422-6.293-7.263-7.945c-4.843-1.65-12.448-2.479-22.813-2.479v-8.886h101.503
					v8.886c-11.85,0-23.555,3.135-35.116,9.398c-11.563,6.267-24.238,16.52-38.021,30.759l-38.961,39.986l100.478,124.23
					c4.785,5.811,9.228,9.714,13.329,11.706c4.101,1.994,9.34,3.105,15.721,3.332v9.057h-124.23v-9.057
					c10.822,0,18.14-0.654,21.958-1.965c3.816-1.309,5.725-3.56,5.725-6.75c0-1.821-0.769-4.102-2.307-6.835
					c-1.538-2.734-3.789-5.981-6.75-9.74l-61.004-76.897l-8.715,8.032v61.175c0,12.875,2.136,21.446,6.408,25.718
					c4.272,4.272,12.501,6.694,24.692,7.263v9.057H150.106v-9.057c11.732-0.454,19.793-3.018,24.18-7.689
					c4.384-4.67,6.579-13.1,6.579-25.291v-155.331c0-11.163-2.251-19.053-6.75-23.667c-4.501-4.613-12.389-7.147-23.667-7.604
					v-8.715h117.566v8.886c-12.418,0.457-20.706,2.679-24.863,6.665c-4.16,3.989-6.237,12.133-6.237,24.436V2004.793z"/>
				<path fill="#1F2022" d="M395.827,2117.232c6.494,0,12.018-2.192,16.576-6.579c4.555-4.384,8.942-11.762,13.158-22.129
					l82.365-204.716h9.398l83.219,197.71c6.494,15.152,11.761,24.893,15.807,29.221c4.042,4.33,9.083,6.493,15.123,6.493v9.398
					H519.716l0.17-9.398c9.796-0.227,16.944-1.479,21.446-3.76c4.499-2.277,6.75-5.81,6.75-10.595c0-1.479-0.371-3.529-1.111-6.151
					c-0.742-2.619-2.251-6.776-4.528-12.475l-10.424-26.486h-77.751l-10.424,25.461c-1.482,3.533-2.622,6.895-3.417,10.082
					c-0.798,3.191-1.196,5.925-1.196,8.203c0,5.355,2.051,9.313,6.152,11.876s10.595,3.845,19.48,3.845h2.05v9.398h-71.086V2117.232
					z M459.565,2043.07h66.814l-33.834-82.707L459.565,2043.07z"/>
				<path fill="#1F2022" d="M729.722,2083.568c0,12.987,1.65,21.019,4.956,24.095c3.303,3.076,10.65,4.613,22.043,4.613
					c25.176,0,44.571-4.955,58.185-14.866c13.612-9.911,24.634-26.999,33.065-51.265h9.569l-13.329,80.485H642.914v-9.057
					c11.62-0.342,19.651-2.876,24.094-7.604c4.443-4.726,6.665-13.185,6.665-25.376v-155.331c0-11.278-2.222-19.165-6.665-23.667
					c-4.443-4.499-12.362-7.032-23.752-7.604v-8.715h121.838v8.715c-14.242,0.23-23.696,2.308-28.366,6.237
					c-4.672,3.931-7.006,12.277-7.006,25.034V2083.568z"/>
				<path fill="#1F2022" d="M975.271,1889.276c19.48,0,34.262,0.913,44.344,2.734c10.082,1.823,18.995,4.785,26.743,8.886
					c9.911,5.469,17.515,12.789,22.813,21.958c5.297,9.172,7.946,19.454,7.946,30.845c0,20.62-7.663,36.739-22.983,48.359
					c-15.323,11.62-36.713,17.43-64.166,17.43h-31.1v65.105c0,12.875,2.136,21.446,6.408,25.718
					c4.272,4.272,12.501,6.694,24.692,7.263v9.057H872.059v-9.057c11.62-0.342,19.651-2.876,24.094-7.604
					c4.443-4.726,6.665-13.185,6.665-25.376v-155.331c0-11.278-2.222-19.165-6.665-23.667c-4.443-4.499-12.362-7.032-23.752-7.604
					v-8.715H975.271z M958.867,2007.014h10.082c17.088,0,29.248-3.957,36.483-11.876c7.233-7.917,10.851-21.274,10.851-40.071
					s-3.105-32.354-9.313-40.67c-6.21-8.314-16.319-12.475-30.332-12.475c-6.723,0-11.364,1.226-13.927,3.674
					c-2.563,2.451-3.845,6.979-3.845,13.585V2007.014z"/>
				<path fill="#1F2022" d="M1064.977,2117.232c6.494,0,12.018-2.192,16.576-6.579c4.555-4.384,8.942-11.762,13.158-22.129
					l82.365-204.716h9.398l83.219,197.71c6.494,15.152,11.761,24.893,15.807,29.221c4.042,4.33,9.083,6.493,15.123,6.493v9.398
					h-111.756l0.17-9.398c9.796-0.227,16.944-1.479,21.446-3.76c4.499-2.277,6.75-5.81,6.75-10.595c0-1.479-0.371-3.529-1.111-6.151
					c-0.742-2.619-2.251-6.776-4.528-12.475l-10.424-26.486h-77.751l-10.424,25.461c-1.482,3.533-2.622,6.895-3.417,10.082
					c-0.798,3.191-1.196,5.925-1.196,8.203c0,5.355,2.051,9.313,6.152,11.876s10.595,3.845,19.48,3.845h2.05v9.398h-71.086V2117.232
					z M1128.715,2043.07h66.814l-33.834-82.707L1128.715,2043.07z"/>
				<path fill="#1F2022" d="M1398.872,2083.568c0,12.987,1.65,21.019,4.956,24.095c3.303,3.076,10.65,4.613,22.043,4.613
					c25.176,0,44.571-4.955,58.185-14.866c13.612-9.911,24.634-26.999,33.065-51.265h9.569l-13.329,80.485h-201.298v-9.057
					c11.62-0.342,19.651-2.876,24.094-7.604c4.443-4.726,6.665-13.185,6.665-25.376v-155.331c0-11.278-2.222-19.165-6.665-23.667
					c-4.443-4.499-12.362-7.032-23.752-7.604v-8.715h121.838v8.715c-14.242,0.23-23.696,2.308-28.366,6.237
					c-4.672,3.931-7.006,12.277-7.006,25.034V2083.568z"/>
				<path fill="#1F2022" d="M1528.563,2117.232c6.494,0,12.018-2.192,16.576-6.579c4.555-4.384,8.942-11.762,13.158-22.129
					l82.365-204.716h9.398l83.219,197.71c6.494,15.152,11.761,24.893,15.807,29.221c4.042,4.33,9.083,6.493,15.123,6.493v9.398
					h-111.756l0.17-9.398c9.796-0.227,16.944-1.479,21.446-3.76c4.499-2.277,6.75-5.81,6.75-10.595c0-1.479-0.371-3.529-1.111-6.151
					c-0.742-2.619-2.251-6.776-4.528-12.475l-10.424-26.486h-77.751l-10.424,25.461c-1.482,3.533-2.622,6.895-3.417,10.082
					c-0.798,3.191-1.196,5.925-1.196,8.203c0,5.355,2.051,9.313,6.152,11.876s10.595,3.845,19.48,3.845h2.05v9.398h-71.086V2117.232
					z M1592.302,2043.07h66.814l-33.834-82.707L1592.302,2043.07z"/>
				<path fill="#1F2022" d="M1775.993,2126.631v-9.057c11.732-0.568,19.737-3.161,24.009-7.775
					c4.272-4.613,6.408-13.243,6.408-25.889v-149.35c0-14.809-2.109-24.578-6.323-29.307c-4.216-4.726-12.362-7.092-24.436-7.092
					v-8.886h106.801c30.075,0,52.858,4.644,68.353,13.927c15.492,9.287,23.24,22.872,23.24,40.756
					c0,14.469-4.699,26.145-14.098,35.03c-9.399,8.886-23.726,15.152-42.977,18.797c23.125,4.443,40.355,11.649,51.692,21.616
					c11.334,9.971,17.002,22.872,17.002,38.705c0,21.531-8.288,38.336-24.863,50.41c-16.575,12.076-39.674,18.113-69.292,18.113
					H1775.993z M1862.459,1995.394h3.076c18.797,0,31.896-3.588,39.303-10.765c7.404-7.178,11.107-19.822,11.107-37.937
					c0-16.063-2.849-27.768-8.544-35.115c-5.698-7.349-14.754-11.022-27.17-11.022c-6.95,0-11.649,1.341-14.098,4.016
					c-2.451,2.679-3.674,8.801-3.674,18.37V1995.394z M1862.459,2006.159v79.802c0,12.077,1.423,19.767,4.272,23.069
					c2.846,3.306,8.314,4.955,16.404,4.955c14.808,0,25.403-4.128,31.784-12.389c6.378-8.259,9.569-22.186,9.569-41.78
					c0-19.593-4.131-33.493-12.389-41.695c-8.261-8.202-22.129-12.304-41.609-12.304c-0.798,0-2.109,0.06-3.93,0.171
					C1864.736,2006.104,1863.369,2006.159,1862.459,2006.159z"/>
				<path fill="#1F2022" d="M2015.733,2126.631v-9.057c11.048-0.568,18.482-2.734,22.3-6.493c3.815-3.76,5.725-11.506,5.725-23.24
					v-156.186c0-13.329-2.109-22.186-6.323-26.572c-4.216-4.384-12.362-6.75-24.436-7.092v-8.715h107.826
					c41.354,0,73.078,10.227,95.181,30.674c22.101,20.449,33.151,49.812,33.151,88.089c0,39.19-10.453,68.753-31.356,88.688
					c-20.906,19.938-52.093,29.904-93.558,29.904H2015.733z M2100.148,2089.208c0,10.367,1.423,17.088,4.272,20.164
					c2.846,3.075,8.429,4.613,16.746,4.613c22.557,0,39.329-8.741,50.324-26.23c10.993-17.485,16.49-44.284,16.49-80.399
					c0-34.859-5.639-61.316-16.917-79.374c-11.278-18.055-27.798-27.085-49.556-27.085c-8.544,0-14.242,1.567-17.088,4.699
					c-2.849,3.135-4.272,9.94-4.272,20.421V2089.208z"/>
				<path fill="#1F2022" d="M2278.542,2126.631v-9.057c11.62-0.342,19.651-2.876,24.095-7.604
					c4.442-4.726,6.664-13.185,6.664-25.376v-155.331c0-11.278-2.222-19.165-6.664-23.667c-4.443-4.499-12.362-7.032-23.753-7.604
					v-8.715h117.566v8.886c-12.418,0.457-20.706,2.679-24.863,6.665c-4.16,3.989-6.237,12.133-6.237,24.436v66.814h83.22v-66.814
					c0-12.303-2.024-20.42-6.066-24.351c-4.045-3.93-12.389-6.178-25.034-6.75v-8.886h117.225v8.715
					c-11.734,0.914-19.681,3.447-23.838,7.604c-4.16,4.16-6.237,12.047-6.237,23.667v155.331c0,11.962,2.248,20.364,6.75,25.205
					c4.499,4.844,12.273,7.434,23.325,7.775v9.057h-117.225v-9.057c12.415-0.568,20.703-2.961,24.863-7.177
					c4.157-4.214,6.237-12.816,6.237-25.804v-73.137h-83.22v73.137c0,12.875,2.137,21.446,6.408,25.718
					c4.272,4.272,12.501,6.694,24.692,7.263v9.057H2278.542z"/>
				<path fill="#1F2022" d="M2677.372,1889.276v8.886c-12.987,0.572-21.59,2.649-25.803,6.237
					c-4.217,3.589-6.323,10.453-6.323,20.592v161.312c0,11.508,2.248,19.31,6.75,23.411c4.499,4.101,13.243,6.723,26.23,7.86v9.057
					h-121.155v-9.057c12.53-1.252,21.019-3.901,25.462-7.946c4.442-4.042,6.664-11.42,6.664-22.129v-162.508
					c0-10.139-2.165-17.059-6.493-20.763c-4.331-3.7-12.875-5.78-25.633-6.237v-8.715H2677.372z"/>
			</g>
			<g>
				<path fill="#1F2022" d="M685.288,2399.131l0.11-4.724c9.52-0.366,15.71-1.83,18.567-4.395c2.856-2.563,4.284-8.057,4.284-16.479
					v-104.26c0-8.13-1.576-13.64-4.724-16.534c-3.15-2.893-9.229-4.339-18.237-4.339v-4.944h129.198l2.417,36.694h-4.724
					c-1.758-10.474-5.036-17.669-9.833-21.588c-4.798-3.918-12.837-5.878-24.115-5.878h-33.068c-4.614,0-7.8,0.824-9.558,2.472
					c-1.758,1.648-2.637,4.56-2.637,8.734v42.077c0,3.516,0.439,5.713,1.318,6.592s2.856,1.318,5.933,1.318h20.654
					c11.865,0,19.72-1.538,23.565-4.614s5.768-8.898,5.768-17.468h4.724v55.15h-4.724c-0.659-9.74-2.637-16.149-5.933-19.226
					s-11.096-4.614-23.401-4.614H740c-2.71,0-4.56,0.477-5.548,1.428c-0.989,0.953-1.483,2.711-1.483,5.273v43.176
					c0,8.204,1.684,13.788,5.054,16.754c3.368,2.967,9.923,4.523,19.665,4.67l0.11,4.724H685.288z"/>
				<path fill="#1F2022" d="M831.4,2399.131v-4.724c9.081-0.22,15.161-1.703,18.237-4.45c3.076-2.746,4.614-8.221,4.614-16.424
					v-104.479c0-7.981-1.576-13.403-4.724-16.26c-3.15-2.855-9.192-4.394-18.127-4.613v-4.725h70.861l-0.11,4.725
					c-9.228,0.367-15.344,1.941-18.347,4.724c-3.004,2.784-4.504,8.168-4.504,16.149v104.479c0,8.058,1.555,13.496,4.669,16.314
					c3.112,2.82,9.174,4.34,18.182,4.56l0.11,4.724H831.4z"/>
				<path fill="#1F2022" d="M952.134,2372.983c0,8.644,1.428,14.21,4.285,16.699c2.856,2.491,8.935,4.065,18.237,4.725v4.724h-56.03
					v-4.724c9.3-0.659,15.381-2.233,18.237-4.725c2.856-2.489,4.284-8.056,4.284-16.699V2264.11
					c-3.004-5.2-6.281-9.045-9.833-11.536c-3.553-2.488-7.783-3.954-12.689-4.394v-4.725h40.1l92.174,110.631v-84.594
					c0-8.641-1.411-14.208-4.229-16.699c-2.82-2.488-8.844-4.026-18.072-4.613v-4.725h55.81v4.725
					c-9.229,0.587-15.271,2.125-18.127,4.613c-2.856,2.491-4.285,8.059-4.285,16.699v129.638h-4.724l-105.138-125.572V2372.983z"/>
				<path fill="#1F2022" d="M1090.556,2399.131v-4.724c4.98-0.072,9.136-1.501,12.469-4.285c3.332-2.782,6.829-8.02,10.492-15.71
					l63.83-133.702h5.383l61.962,136.119c1.464,3.296,2.983,6.097,4.559,8.404c1.574,2.307,3.203,4.157,4.889,5.548
					c1.538,1.393,3.296,2.381,5.273,2.967c1.978,0.587,4.466,0.879,7.47,0.879v4.504h-64.928v-4.724
					c6.518-0.146,11.022-0.971,13.513-2.473c2.489-1.5,3.735-4.046,3.735-7.635c0-1.171-0.128-2.344-0.384-3.516
					c-0.257-1.171-0.642-2.344-1.154-3.516l-13.073-29.443h-66.577l-10.986,24.719c-1.246,2.784-2.161,5.201-2.747,7.251
					c-0.587,2.052-0.879,3.773-0.879,5.164c0,3.224,1.354,5.603,4.065,7.141c2.709,1.538,6.958,2.308,12.744,2.308h1.428v4.724
					H1090.556z M1141.642,2338.816h59.326l-28.564-65.258L1141.642,2338.816z"/>
				<path fill="#1F2022" d="M1307.2,2372.983c0,8.644,1.428,14.21,4.285,16.699c2.856,2.491,8.935,4.065,18.237,4.725v4.724h-56.03
					v-4.724c9.3-0.659,15.381-2.233,18.237-4.725c2.856-2.489,4.284-8.056,4.284-16.699V2264.11
					c-3.004-5.2-6.281-9.045-9.833-11.536c-3.553-2.488-7.783-3.954-12.689-4.394v-4.725h40.1l92.174,110.631v-84.594
					c0-8.641-1.411-14.208-4.229-16.699c-2.82-2.488-8.844-4.026-18.072-4.613v-4.725h55.81v4.725
					c-9.229,0.587-15.271,2.125-18.127,4.613c-2.856,2.491-4.285,8.059-4.285,16.699v129.638h-4.724L1307.2,2273.559V2372.983z"/>
				<path fill="#1F2022" d="M1600.638,2363.096l3.845,4.065c-8.643,12.013-18.402,20.947-29.278,26.807
					c-10.876,5.858-23.164,8.788-36.859,8.788c-24.537,0-44.219-7.342-59.051-22.027c-14.832-14.684-22.247-34.111-22.247-58.281
					c0-24.096,7.726-43.853,23.181-59.271c15.453-15.417,35.266-23.126,59.436-23.126c9.229,0,18.768,1.502,28.619,4.504
					c9.85,3.004,15.362,4.505,16.534,4.505c2.197,0,3.991-0.731,5.383-2.197c1.391-1.465,2.087-3.368,2.087-5.713h4.285
					l4.504,50.427h-4.724c-4.395-14.135-11.06-24.865-19.995-32.19c-8.937-7.322-19.813-10.985-32.629-10.985
					c-17.945,0-32.409,6.665-43.396,19.994c-10.986,13.331-16.479,30.945-16.479,52.844c0,21.021,5.474,38.251,16.424,51.69
					c10.949,13.441,24.956,20.16,42.022,20.16c11.792,0,22.283-2.362,31.476-7.087
					C1582.967,2381.278,1591.921,2373.643,1600.638,2363.096z"/>
				<path fill="#1F2022" d="M1617.992,2399.131v-4.724c9.081-0.22,15.161-1.703,18.237-4.45c3.076-2.746,4.614-8.221,4.614-16.424
					v-104.479c0-7.981-1.576-13.403-4.724-16.26c-3.15-2.855-9.192-4.394-18.127-4.613v-4.725h70.861l-0.11,4.725
					c-9.228,0.367-15.344,1.941-18.347,4.724c-3.004,2.784-4.504,8.168-4.504,16.149v104.479c0,8.058,1.555,13.496,4.669,16.314
					c3.112,2.82,9.174,4.34,18.182,4.56l0.11,4.724H1617.992z"/>
				<path fill="#1F2022" d="M1699.615,2399.131v-4.724c4.98-0.072,9.136-1.501,12.469-4.285c3.332-2.782,6.829-8.02,10.492-15.71
					l63.83-133.702h5.383l61.962,136.119c1.464,3.296,2.983,6.097,4.559,8.404c1.574,2.307,3.203,4.157,4.889,5.548
					c1.538,1.393,3.296,2.381,5.273,2.967c1.978,0.587,4.466,0.879,7.47,0.879v4.504h-64.928v-4.724
					c6.518-0.146,11.022-0.971,13.513-2.473c2.489-1.5,3.735-4.046,3.735-7.635c0-1.171-0.128-2.344-0.384-3.516
					c-0.257-1.171-0.642-2.344-1.154-3.516l-13.073-29.443h-66.577l-10.986,24.719c-1.246,2.784-2.161,5.201-2.747,7.251
					c-0.587,2.052-0.879,3.773-0.879,5.164c0,3.224,1.354,5.603,4.065,7.141c2.709,1.538,6.958,2.308,12.744,2.308h1.428v4.724
					H1699.615z M1750.701,2338.816h59.326l-28.564-65.258L1750.701,2338.816z"/>
				<path fill="#1F2022" d="M1883.849,2399.131v-4.724h1.099c8.276,0,13.915-1.61,16.919-4.834
					c3.002-3.223,4.504-9.484,4.504-18.787v-101.293c0-9.154-1.483-14.977-4.449-17.468c-2.966-2.489-8.954-3.771-17.962-3.845
					l-0.11-4.725h70.861v4.725h-1.099c-8.277,0-14.026,1.557-17.248,4.669c-3.224,3.113-4.834,8.662-4.834,16.644v104.699
					c0,6.959,0.989,11.315,2.966,13.073s6.188,2.637,12.634,2.637h26.916c11.572,0,21.094-2.544,28.564-7.636
					c7.471-5.089,13.476-13.128,18.018-24.114h4.724l-12.744,40.979H1883.849z"/>
				<path fill="#1F2022" d="M2044.134,2402.316l-8.569-50.207h4.724c5.419,13.403,12.267,23.841,20.544,31.312
					c8.276,7.471,17.101,11.206,26.477,11.206c8.275,0,15.216-2.637,20.819-7.91s8.405-11.865,8.405-19.775
					c0-5.785-1.869-11.188-5.604-16.205c-3.735-5.016-9.522-9.795-17.358-14.337l-24.28-14.722
					c-10.475-6.152-18-12.469-22.577-18.951c-4.578-6.481-6.866-13.934-6.866-22.356c0-11.865,4.21-21.551,12.634-29.059
					c8.422-7.507,19.408-11.261,32.959-11.261c6.298,0,12.981,1.172,20.05,3.516c7.067,2.345,11.261,3.516,12.579,3.516
					c1.684,0,3.021-0.586,4.01-1.758c0.988-1.171,1.629-2.929,1.924-5.273h4.064l5.162,47.021h-4.723
					c-4.469-12.744-10.256-22.448-17.359-29.113c-7.105-6.664-15.199-9.997-24.279-9.997c-7.69,0-13.972,2.18-18.841,6.536
					c-4.872,4.358-7.306,9.98-7.306,16.864c0,5.347,1.684,10.217,5.054,14.611c3.368,4.395,9.119,9.047,17.249,13.953l27.026,15.93
					c11.059,6.665,18.803,13.221,23.237,19.665c4.43,6.446,6.646,14.137,6.646,23.071c0,13.403-4.523,24.114-13.568,32.135
					c-9.047,8.02-21.187,12.029-36.419,12.029c-7.105,0-14.43-1.026-21.973-3.076c-7.544-2.049-11.683-3.075-12.415-3.075
					c-2.125,0-3.809,0.477-5.053,1.428c-1.247,0.953-2.052,2.379-2.417,4.284H2044.134z"/>
			</g>
		</g>
		<g>
			<g>
				<g>
					<g>
						<path fill="#1F2022" d="M2218.682,2314.199l345.271,4.834c0.768,0,1.41,0.689,1.381,1.611c0,0.844-0.633,1.572-1.381,1.572
							l-345.271,4.795c-3.145,0.078-5.715-2.801-5.734-6.33c-0.068-3.529,2.436-6.445,5.602-6.482
							C2218.567,2314.199,2218.645,2314.199,2218.682,2314.199z"/>
						<path fill="#1F2022" d="M2192.182,2320.605c0,5.332-3.797,9.592-8.498,9.592c-4.68,0-8.488-4.26-8.488-9.592
							c0-5.295,3.809-9.592,8.488-9.592C2188.385,2311.014,2192.182,2315.311,2192.182,2320.605z"/>
					</g>
				</g>
				<g>
					<g>
						<path fill="#1F2022" d="M615.986,2314.199l-345.271,4.834c-0.785,0-1.428,0.689-1.408,1.611
							c0.018,0.844,0.643,1.572,1.408,1.572l345.271,4.795c3.117,0.078,5.707-2.801,5.736-6.33c0.066-3.529-2.465-6.445-5.602-6.482
							C616.092,2314.199,616.006,2314.199,615.986,2314.199z"/>
						<path fill="#1F2022" d="M642.486,2320.605c0,5.332,3.77,9.592,8.498,9.592c4.68,0,8.479-4.26,8.479-9.592
							c0-5.295-3.799-9.592-8.479-9.592C646.256,2311.014,642.486,2315.311,642.486,2320.605z"/>
					</g>
				</g>
			</g>
		</g>
	</g>
	<g>
		<path fill="#278E44" d="M1275.156,620.771c-21.438,0-40.734-12.91-48.936-32.707c-8.209-19.758-3.682-42.564,11.473-57.699
			l-0.184,0.152l136.895-136.885l0.191-0.152c20.689-20.717,54.209-20.717,74.889,0l-0.164,0.152l137.25,136.885l0.152-0.152
			c15.154,15.135,19.682,37.941,11.49,57.699c-8.219,19.797-27.508,32.707-48.953,32.707l-0.133,0.344h-274.154"/>
		<path fill="#CAB03A" d="M1275.156,1680.225c-21.438,0-40.734-12.891-48.936-32.686c-8.209-19.816-3.682-42.584,11.473-57.719
			l-0.184,0.152l136.895-136.904l0.191-0.133c20.689-20.717,54.209-20.717,74.889,0l-0.164,0.133l137.25,136.904l0.152-0.152
			c15.154,15.135,19.682,37.902,11.49,57.719c-8.219,19.795-27.508,32.686-48.953,32.686l-0.133,0.346h-274.154"/>
		<path fill="#237D3E" d="M1374.596,842.613c20.689,20.717,54.209,20.717,74.889,0l-0.164,0.211l183.564-183.209l0.191-0.174
			c20.67-20.678,54.191-20.678,74.879,0l-0.172,0.174l136.912,136.865l0.174-0.135c15.135,15.135,19.68,37.924,11.49,57.701
			c-8.211,19.814-27.508,32.686-48.936,32.686h-0.172h-790.77h0.174c-21.408,0-40.725-12.871-48.916-32.686
			c-8.189-19.777-3.664-42.566,11.471-57.701l-0.191,0.135l137.26-136.865l0.201-0.174c20.658-20.678,54.189-20.678,74.85,0
			l-0.135,0.174l183.209,183.209"/>
		<path fill="#225D2E" d="M1121.4,1106.752L938.162,923.16l0.172-0.135c-20.697-20.697-54.229-20.697-74.926,0l-0.152,0.135
			l-137.26,137.268l0.184-0.135c-15.135,15.098-19.672,37.885-11.473,57.701c8.182,19.777,27.508,32.666,48.906,32.666h-0.182
			h1307.395h0.182c21.416,0,40.725-12.889,48.934-32.666c8.191-19.816,3.664-42.604-11.491-57.701l-0.143,0.135L1971.414,923.16
			l0.133-0.135c-20.697-20.697-54.189-20.697-74.887,0l-0.191,0.135l-183.564,183.592l0.162-0.191
			c-20.688,20.68-54.209,20.68-74.896,0l-0.162,0.191l-183.23-183.592l0.174-0.135c-20.697-20.697-54.229-20.697-74.906,0
			l-0.193,0.135l-183.545,183.592l0.154-0.191c-20.68,20.68-54.199,20.68-74.898,0"/>
		<path fill="#AF9631" d="M1374.596,1372.484c20.689,20.697,54.209,20.697,74.889,0l-0.164,0.211l183.564-183.535l0.191-0.174
			c20.67-20.678,54.191-20.678,74.879,0l-0.172,0.174l136.912,137.211l0.174-0.154c15.135,15.154,19.68,37.943,11.49,57.701
			c-8.211,19.834-27.508,32.725-48.936,32.725h-0.172h-790.77h0.174c-21.408,0-40.725-12.891-48.916-32.725
			c-8.189-19.758-3.664-42.547,11.471-57.701l-0.191,0.154l137.26-137.211l0.201-0.174c20.658-20.678,54.189-20.678,74.85,0
			l-0.135,0.174l183.209,183.535"/>
	</g>
</g>
</svg>
