<?xml version="1.0" encoding="utf-8"?>
<!-- Generator: Adobe Illustrator 16.0.0, SVG Export Plug-In . SVG Version: 6.00 Build 0)  -->
<!DOCTYPE svg PUBLIC "-//W3C//DTD SVG 1.1//EN" "http://www.w3.org/Graphics/SVG/1.1/DTD/svg11.dtd">
<svg version="1.1" id="Layer_1" xmlns="http://www.w3.org/2000/svg" xmlns:xlink="http://www.w3.org/1999/xlink" x="0px" y="0px"
	 width="2834.646px" height="2834.646px" viewBox="0 0 2834.646 2834.646" enable-background="new 0 0 2834.646 2834.646"
	 xml:space="preserve">
<g>
	<path fill="#278E44" d="M1137.883,614.411c-42.138,0-80.067-25.376-96.187-64.288c-16.136-38.836-7.237-83.664,22.55-113.413
		l-0.361,0.3l269.078-269.059l0.376-0.299c40.667-40.721,106.552-40.721,147.2,0l-0.322,0.299l269.776,269.059l0.299-0.3
		c29.787,29.749,38.686,74.577,22.585,113.413c-16.155,38.912-54.069,64.288-96.222,64.288l-0.261,0.676h-538.873"/>
	<path fill="#CAB03A" d="M1137.883,2696.853c-42.138,0-80.067-25.337-96.187-64.245c-16.136-38.951-7.237-83.703,22.55-113.451
		l-0.361,0.3l269.078-269.097l0.376-0.262c40.667-40.72,106.552-40.72,147.2,0l-0.322,0.262l269.776,269.097l0.299-0.3
		c29.787,29.748,38.686,74.5,22.585,113.451c-16.155,38.908-54.069,64.245-96.222,64.245l-0.261,0.681h-538.873"/>
	<path fill="#237D3E" d="M1333.339,1050.459c40.667,40.721,106.552,40.721,147.2,0l-0.322,0.415l360.811-360.112l0.376-0.342
		c40.629-40.644,106.518-40.644,147.181,0l-0.338,0.342l269.111,269.019l0.343-0.265c29.749,29.749,38.682,74.543,22.585,113.417
		c-16.139,38.947-54.068,64.245-96.188,64.245h-0.338H629.438h0.342c-42.08,0-80.047-25.298-96.148-64.245
		c-16.097-38.874-7.202-83.668,22.547-113.417l-0.376,0.265l269.795-269.019l0.396-0.342c40.605-40.644,106.514-40.644,147.123,0
		l-0.265,0.342l360.112,360.112"/>
	<path fill="#225D2E" d="M835.664,1569.646l-360.17-360.865l0.338-0.265c-40.683-40.682-106.59-40.682-147.273,0l-0.299,0.265
		L58.464,1478.592l0.361-0.265c-29.749,29.675-38.667,74.466-22.55,113.415c16.081,38.875,54.068,64.209,96.128,64.209h-0.356
		h2569.792h0.355c42.096,0,80.049-25.334,96.185-64.209c16.102-38.949,7.202-83.74-22.586-113.415l-0.28,0.265l-269.077-269.812
		l0.261-0.265c-40.682-40.682-106.514-40.682-147.196,0l-0.376,0.265l-360.811,360.865l0.318-0.377
		c-40.663,40.648-106.552,40.648-147.215,0l-0.318,0.377l-360.155-360.865l0.342-0.265c-40.683-40.682-106.59-40.682-147.234,0
		l-0.38,0.265l-360.772,360.865l0.303-0.377c-40.647,40.648-106.533,40.648-147.219,0"/>
	<path fill="#AF9631" d="M1333.339,2091.965c40.667,40.682,106.552,40.682,147.2,0l-0.322,0.414l360.811-360.753l0.376-0.343
		c40.629-40.644,106.518-40.644,147.181,0l-0.338,0.343l269.111,269.699l0.343-0.304c29.749,29.788,38.682,74.581,22.585,113.417
		c-16.139,38.985-54.068,64.322-96.188,64.322h-0.338H629.438h0.342c-42.08,0-80.047-25.337-96.148-64.322
		c-16.097-38.836-7.202-83.629,22.547-113.417l-0.376,0.304l269.795-269.699l0.396-0.343c40.605-40.644,106.514-40.644,147.123,0
		l-0.265,0.343l360.112,360.753"/>
</g>
</svg>
