<?xml version="1.0" encoding="utf-8"?>
<!-- Generator: Adobe Illustrator 16.0.0, SVG Export Plug-In . SVG Version: 6.00 Build 0)  -->
<!DOCTYPE svg PUBLIC "-//W3C//DTD SVG 1.1//EN" "http://www.w3.org/Graphics/SVG/1.1/DTD/svg11.dtd">
<svg version="1.1" id="Layer_1" xmlns="http://www.w3.org/2000/svg" xmlns:xlink="http://www.w3.org/1999/xlink" x="0px" y="0px"
	 width="850.394px" height="236.222px" viewBox="0 0 850.394 236.222" enable-background="new 0 0 850.394 236.222"
	 xml:space="preserve">
<g>
	<g>
		<g>
			<g>
				<path fill="#1F2022" d="M273.693,85.797l16.823-16.986c1.064-1.064,1.888-2.073,2.474-3.03c0.583-0.957,0.875-1.768,0.875-2.432
					c0-0.853-0.563-1.468-1.692-1.855c-1.13-0.384-2.907-0.576-5.322-0.576v-2.073h23.682v2.073c-2.764,0-5.495,0.729-8.193,2.19
					c-2.699,1.462-5.654,3.854-8.871,7.178l-9.092,9.33l23.444,28.987c1.117,1.354,2.155,2.266,3.112,2.73
					c0.957,0.466,2.178,0.723,3.665,0.778v2.112h-28.984v-2.112c2.526,0,4.232-0.153,5.124-0.459
					c0.889-0.306,1.334-0.83,1.334-1.575c0-0.427-0.179-0.957-0.537-1.596c-0.361-0.638-0.885-1.396-1.576-2.271l-14.235-17.942
					l-2.031,1.875v14.273c0,3.001,0.498,5.003,1.494,5.999s2.917,1.563,5.762,1.696v2.112h-27.513v-2.112
					c2.738-0.107,4.619-0.706,5.645-1.797c1.022-1.087,1.533-3.057,1.533-5.898V68.173c0-2.604-0.524-4.446-1.576-5.524
					c-1.048-1.074-2.891-1.666-5.521-1.773v-2.031h27.431v2.073c-2.897,0.104-4.831,0.625-5.801,1.553
					c-0.973,0.931-1.455,2.832-1.455,5.703V85.797z"/>
				<path fill="#1F2022" d="M310.77,112.03c1.517,0,2.803-0.512,3.867-1.537c1.064-1.021,2.086-2.744,3.07-5.162l19.218-47.764
					h2.194l19.417,46.129c1.514,3.535,2.744,5.808,3.688,6.82c0.94,1.009,2.119,1.514,3.528,1.514v2.193h-26.077l0.039-2.193
					c2.288-0.053,3.955-0.346,5.006-0.876c1.048-0.534,1.572-1.357,1.572-2.474c0-0.346-0.084-0.824-0.257-1.436
					c-0.172-0.612-0.527-1.579-1.058-2.91l-2.432-6.179h-18.142l-2.432,5.94c-0.345,0.824-0.612,1.608-0.797,2.351
					c-0.186,0.745-0.28,1.384-0.28,1.914c0,1.25,0.479,2.175,1.436,2.771c0.957,0.599,2.474,0.898,4.544,0.898h0.479v2.193H310.77
					V112.03z M325.643,94.726h15.589l-7.894-19.297L325.643,94.726z"/>
				<path fill="#1F2022" d="M388.676,104.175c0,3.031,0.384,4.906,1.156,5.622c0.771,0.72,2.484,1.077,5.143,1.077
					c5.876,0,10.4-1.155,13.578-3.47c3.174-2.312,5.745-6.299,7.715-11.96h2.233l-3.112,18.779h-46.966v-2.112
					c2.711-0.081,4.583-0.674,5.622-1.777c1.035-1.101,1.553-3.076,1.553-5.918V68.173c0-2.634-0.518-4.473-1.553-5.524
					c-1.039-1.048-2.884-1.641-5.543-1.773v-2.031h28.427v2.031c-3.323,0.055-5.527,0.54-6.618,1.455
					c-1.09,0.918-1.634,2.864-1.634,5.843V104.175z"/>
				<path fill="#1F2022" d="M445.968,58.844c4.547,0,7.995,0.211,10.348,0.638c2.35,0.423,4.43,1.116,6.24,2.073
					c2.311,1.276,4.085,2.982,5.322,5.121c1.233,2.142,1.852,4.541,1.852,7.197c0,4.811-1.787,8.574-5.361,11.285
					c-3.574,2.712-8.567,4.066-14.97,4.066h-7.259v15.191c0,3.001,0.501,5.003,1.498,5.999s2.917,1.563,5.762,1.696v2.112h-27.513
					v-2.112c2.711-0.081,4.586-0.674,5.622-1.777c1.039-1.101,1.556-3.076,1.556-5.918V68.173c0-2.634-0.518-4.473-1.556-5.524
					c-1.035-1.048-2.884-1.641-5.54-1.773v-2.031H445.968z M442.14,86.314h2.354c3.988,0,6.823-0.925,8.512-2.771
					c1.689-1.849,2.533-4.964,2.533-9.353c0-4.385-0.726-7.549-2.174-9.488c-1.449-1.94-3.806-2.91-7.077-2.91
					c-1.569,0-2.649,0.286-3.249,0.855c-0.599,0.573-0.898,1.631-0.898,3.171V86.314z"/>
				<path fill="#1F2022" d="M466.898,112.03c1.517,0,2.806-0.512,3.867-1.537c1.064-1.021,2.086-2.744,3.07-5.162l19.219-47.764
					h2.194l19.417,46.129c1.514,3.535,2.744,5.808,3.688,6.82c0.941,1.009,2.119,1.514,3.529,1.514v2.193h-26.077l0.039-2.193
					c2.289-0.053,3.955-0.346,5.006-0.876c1.048-0.534,1.572-1.357,1.572-2.474c0-0.346-0.084-0.824-0.257-1.436
					c-0.173-0.612-0.524-1.579-1.058-2.91l-2.432-6.179h-18.141l-2.432,5.94c-0.345,0.824-0.612,1.608-0.798,2.351
					c-0.186,0.745-0.28,1.384-0.28,1.914c0,1.25,0.479,2.175,1.436,2.771c0.957,0.599,2.474,0.898,4.547,0.898h0.476v2.193h-16.585
					V112.03z M481.771,94.726h15.589l-7.894-19.297L481.771,94.726z"/>
				<path fill="#1F2022" d="M544.805,104.175c0,3.031,0.384,4.906,1.155,5.622c0.771,0.72,2.487,1.077,5.144,1.077
					c5.875,0,10.4-1.155,13.577-3.47c3.174-2.312,5.749-6.299,7.715-11.96h2.233l-3.112,18.779h-46.966v-2.112
					c2.711-0.081,4.583-0.674,5.622-1.777c1.035-1.101,1.556-3.076,1.556-5.918V68.173c0-2.634-0.521-4.473-1.556-5.524
					c-1.039-1.048-2.884-1.641-5.543-1.773v-2.031h28.427v2.031c-3.32,0.055-5.527,0.54-6.618,1.455
					c-1.09,0.918-1.634,2.864-1.634,5.843V104.175z"/>
				<path fill="#1F2022" d="M575.065,112.03c1.514,0,2.803-0.512,3.867-1.537c1.064-1.021,2.087-2.744,3.07-5.162l19.219-47.764
					h2.194l19.417,46.129c1.514,3.535,2.744,5.808,3.688,6.82c0.94,1.009,2.119,1.514,3.528,1.514v2.193h-26.077l0.039-2.193
					c2.285-0.053,3.955-0.346,5.003-0.876c1.052-0.534,1.576-1.357,1.576-2.474c0-0.346-0.084-0.824-0.257-1.436
					c-0.176-0.612-0.527-1.579-1.058-2.91l-2.432-6.179h-18.141l-2.432,5.94c-0.345,0.824-0.612,1.608-0.797,2.351
					c-0.186,0.745-0.28,1.384-0.28,1.914c0,1.25,0.479,2.175,1.436,2.771c0.957,0.599,2.471,0.898,4.544,0.898h0.479v2.193h-16.585
					V112.03z M589.938,94.726h15.589l-7.894-19.297L589.938,94.726z"/>
				<path fill="#1F2022" d="M632.796,114.224v-2.112c2.738-0.134,4.606-0.739,5.602-1.816c0.996-1.074,1.494-3.089,1.494-6.038
					V69.41c0-3.457-0.491-5.736-1.475-6.84c-0.983-1.104-2.884-1.653-5.7-1.653v-2.073h24.918c7.018,0,12.334,1.084,15.947,3.248
					c3.616,2.168,5.423,5.336,5.423,9.509c0,3.376-1.097,6.101-3.288,8.174c-2.194,2.073-5.537,3.535-10.029,4.385
					c5.397,1.038,9.417,2.718,12.061,5.046c2.646,2.324,3.968,5.335,3.968,9.029c0,5.022-1.934,8.945-5.801,11.761
					c-3.867,2.819-9.258,4.229-16.169,4.229H632.796z M652.971,83.603h0.716c4.388,0,7.445-0.837,9.17-2.513
					c1.729-1.674,2.594-4.623,2.594-8.852c0-3.746-0.667-6.478-1.995-8.193c-1.328-1.715-3.441-2.571-6.338-2.571
					c-1.625,0-2.718,0.313-3.291,0.938c-0.573,0.625-0.856,2.054-0.856,4.287V83.603z M652.971,86.115v18.62
					c0,2.815,0.332,4.609,0.996,5.381s1.94,1.155,3.828,1.155c3.454,0,5.928-0.964,7.416-2.891s2.233-5.176,2.233-9.746
					c0-4.573-0.963-7.815-2.891-9.729c-1.927-1.914-5.163-2.871-9.707-2.871c-0.188,0-0.495,0.013-0.918,0.039
					C653.502,86.103,653.183,86.115,652.971,86.115z"/>
				<path fill="#1F2022" d="M688.733,114.224v-2.112c2.578-0.134,4.313-0.638,5.205-1.517c0.889-0.876,1.334-2.686,1.334-5.424
					V68.729c0-3.108-0.491-5.176-1.474-6.198c-0.983-1.025-2.884-1.575-5.703-1.656v-2.031h25.159
					c9.648,0,17.051,2.386,22.207,7.154c5.156,4.772,7.734,11.625,7.734,20.554c0,9.144-2.438,16.041-7.314,20.693
					c-4.88,4.651-12.155,6.979-21.83,6.979H688.733z M708.43,105.49c0,2.419,0.332,3.987,0.996,4.707
					c0.664,0.716,1.966,1.074,3.906,1.074c5.264,0,9.176-2.038,11.745-6.12c2.562-4.078,3.848-10.332,3.848-18.759
					c0-8.132-1.318-14.307-3.949-18.52c-2.63-4.212-6.487-6.318-11.563-6.318c-1.995,0-3.323,0.365-3.987,1.094
					c-0.664,0.732-0.996,2.321-0.996,4.766V105.49z"/>
				<path fill="#1F2022" d="M750.054,114.224v-2.112c2.711-0.081,4.583-0.674,5.622-1.777c1.035-1.101,1.553-3.076,1.553-5.918
					V68.173c0-2.634-0.518-4.473-1.553-5.524c-1.039-1.048-2.884-1.641-5.543-1.773v-2.031h27.432v2.073
					c-2.897,0.104-4.831,0.625-5.801,1.553c-0.97,0.931-1.455,2.832-1.455,5.703v15.589h19.417V68.173
					c0-2.871-0.472-4.766-1.416-5.684c-0.944-0.915-2.891-1.438-5.84-1.572v-2.073h27.349v2.031
					c-2.738,0.215-4.593,0.804-5.563,1.773c-0.97,0.974-1.455,2.813-1.455,5.524v36.243c0,2.79,0.524,4.749,1.576,5.879
					s2.865,1.735,5.443,1.816v2.112h-27.349v-2.112c2.894-0.134,4.831-0.693,5.801-1.677c0.97-0.982,1.455-2.991,1.455-6.019V87.35
					h-19.417v17.066c0,3.001,0.498,5.003,1.494,5.999s2.917,1.563,5.762,1.696v2.112H750.054z"/>
				<path fill="#1F2022" d="M843.108,58.844v2.073c-3.03,0.134-5.039,0.615-6.022,1.455c-0.983,0.837-1.475,2.438-1.475,4.805
					v37.637c0,2.686,0.524,4.505,1.576,5.462c1.048,0.957,3.089,1.569,6.12,1.836v2.112h-28.268v-2.112
					c2.923-0.293,4.906-0.911,5.941-1.855s1.556-2.666,1.556-5.163V67.177c0-2.366-0.504-3.981-1.517-4.847
					c-1.009-0.863-3.005-1.348-5.98-1.455v-2.031H843.108z"/>
			</g>
			<g>
				<path fill="#1F2022" d="M378.309,177.805l0.026-1.104c2.22-0.085,3.666-0.427,4.333-1.025c0.664-0.596,0.999-1.879,0.999-3.845
					v-24.326c0-1.897-0.368-3.184-1.104-3.857c-0.735-0.677-2.151-1.013-4.254-1.013v-1.155h30.146l0.563,8.564h-1.104
					c-0.41-2.444-1.175-4.124-2.295-5.039c-1.116-0.915-2.995-1.37-5.625-1.37h-7.715c-1.077,0-1.819,0.191-2.229,0.576
					c-0.41,0.384-0.615,1.064-0.615,2.037v9.818c0,0.82,0.101,1.334,0.306,1.539s0.667,0.307,1.384,0.307h4.821
					c2.767,0,4.6-0.358,5.498-1.078c0.895-0.716,1.344-2.073,1.344-4.075h1.104v12.868h-1.104c-0.153-2.272-0.615-3.767-1.383-4.486
					c-0.768-0.716-2.588-1.074-5.459-1.074h-4.87c-0.635,0-1.064,0.111-1.296,0.332c-0.231,0.222-0.345,0.632-0.345,1.23v10.075
					c0,1.914,0.391,3.216,1.178,3.909c0.785,0.69,2.314,1.055,4.586,1.088l0.026,1.104H378.309z"/>
				<path fill="#1F2022" d="M412.4,177.805v-1.104c2.119-0.049,3.538-0.397,4.254-1.039c0.719-0.641,1.077-1.917,1.077-3.831
					v-24.378c0-1.862-0.368-3.129-1.104-3.793c-0.735-0.667-2.145-1.025-4.228-1.077v-1.104h16.533l-0.026,1.104
					c-2.152,0.085-3.581,0.452-4.281,1.104c-0.7,0.647-1.051,1.904-1.051,3.767v24.378c0,1.882,0.365,3.147,1.09,3.806
					c0.726,0.66,2.142,1.016,4.242,1.064l0.026,1.104H412.4z"/>
				<path fill="#1F2022" d="M440.571,171.704c0,2.015,0.332,3.313,0.999,3.896c0.667,0.579,2.083,0.947,4.255,1.101v1.104h-13.073
					v-1.104c2.171-0.153,3.591-0.521,4.255-1.101c0.667-0.583,0.999-1.882,0.999-3.896v-25.403c-0.7-1.215-1.465-2.109-2.292-2.692
					c-0.83-0.579-1.816-0.921-2.962-1.025v-1.104h9.355l21.507,25.813v-19.736c0-2.018-0.329-3.316-0.986-3.896
					c-0.658-0.582-2.064-0.94-4.216-1.077v-1.104h13.021v1.104c-2.152,0.137-3.564,0.495-4.229,1.077c-0.667,0.58-1,1.879-1,3.896
					v30.248h-1.104l-24.531-29.301V171.704z"/>
				<path fill="#1F2022" d="M472.869,177.805v-1.104c1.162-0.017,2.129-0.349,2.907-1c0.778-0.647,1.595-1.871,2.448-3.665
					l14.896-31.194h1.253l14.459,31.758c0.342,0.771,0.696,1.422,1.064,1.963c0.364,0.537,0.745,0.97,1.139,1.292
					c0.358,0.325,0.768,0.557,1.23,0.693c0.462,0.137,1.042,0.205,1.741,0.205v1.052h-15.146v-1.104
					c1.52-0.033,2.572-0.225,3.151-0.576c0.583-0.349,0.873-0.944,0.873-1.781c0-0.273-0.029-0.547-0.091-0.82
					c-0.059-0.273-0.149-0.547-0.267-0.82l-3.05-6.871h-15.534l-2.565,5.768c-0.29,0.651-0.504,1.215-0.641,1.693
					s-0.205,0.879-0.205,1.204c0,0.752,0.316,1.309,0.951,1.667c0.631,0.357,1.621,0.537,2.972,0.537h0.332v1.104H472.869z
					 M484.786,163.732h13.845l-6.667-15.229L484.786,163.732z"/>
				<path fill="#1F2022" d="M523.415,171.704c0,2.015,0.335,3.313,1,3.896c0.667,0.579,2.086,0.947,4.258,1.101v1.104h-13.076
					v-1.104c2.171-0.153,3.59-0.521,4.258-1.101c0.664-0.583,0.999-1.882,0.999-3.896v-25.403c-0.703-1.215-1.465-2.109-2.295-2.692
					c-0.83-0.579-1.816-0.921-2.962-1.025v-1.104h9.358l21.507,25.813v-19.736c0-2.018-0.332-3.316-0.99-3.896
					c-0.657-0.582-2.063-0.94-4.215-1.077v-1.104h13.021v1.104c-2.151,0.137-3.561,0.495-4.228,1.077c-0.667,0.58-1,1.879-1,3.896
					v30.248h-1.104l-24.531-29.301V171.704z"/>
				<path fill="#1F2022" d="M591.881,169.396l0.898,0.947c-2.018,2.803-4.293,4.889-6.833,6.256c-2.536,1.367-5.404,2.051-8.6,2.051
					c-5.726,0-10.316-1.715-13.776-5.14c-3.463-3.428-5.192-7.959-5.192-13.601c0-5.621,1.803-10.23,5.407-13.828
					c3.607-3.597,8.229-5.396,13.871-5.396c2.152,0,4.378,0.352,6.676,1.051c2.298,0.7,3.584,1.052,3.857,1.052
					c0.515,0,0.931-0.169,1.257-0.511c0.325-0.342,0.488-0.788,0.488-1.335h0.999l1.052,11.768h-1.104
					c-1.025-3.301-2.582-5.804-4.665-7.513c-2.086-1.709-4.622-2.563-7.614-2.563c-4.186,0-7.562,1.557-10.124,4.665
					c-2.565,3.112-3.848,7.22-3.848,12.331c0,4.902,1.279,8.922,3.834,12.061c2.552,3.135,5.82,4.703,9.805,4.703
					c2.75,0,5.199-0.553,7.344-1.653C587.76,173.638,589.847,171.857,591.881,169.396z"/>
				<path fill="#1F2022" d="M595.931,177.805v-1.104c2.119-0.049,3.538-0.397,4.254-1.039c0.719-0.641,1.077-1.917,1.077-3.831
					v-24.378c0-1.862-0.368-3.129-1.104-3.793c-0.732-0.667-2.145-1.025-4.228-1.077v-1.104h16.533l-0.026,1.104
					c-2.152,0.085-3.581,0.452-4.281,1.104c-0.7,0.647-1.051,1.904-1.051,3.767v24.378c0,1.882,0.364,3.147,1.09,3.806
					c0.726,0.66,2.142,1.016,4.242,1.064l0.026,1.104H595.931z"/>
				<path fill="#1F2022" d="M614.977,177.805v-1.104c1.162-0.017,2.129-0.349,2.907-1c0.778-0.647,1.595-1.871,2.448-3.665
					l14.896-31.194h1.253L650.94,172.6c0.342,0.771,0.696,1.422,1.061,1.963c0.368,0.537,0.749,0.97,1.143,1.292
					c0.358,0.325,0.768,0.557,1.23,0.693c0.462,0.137,1.042,0.205,1.741,0.205v1.052h-15.149v-1.104
					c1.523-0.033,2.575-0.225,3.154-0.576c0.58-0.349,0.873-0.944,0.873-1.781c0-0.273-0.029-0.547-0.091-0.82
					c-0.059-0.273-0.149-0.547-0.267-0.82l-3.054-6.871h-15.534l-2.562,5.768c-0.29,0.651-0.504,1.215-0.641,1.693
					s-0.205,0.879-0.205,1.204c0,0.752,0.316,1.309,0.947,1.667c0.635,0.357,1.625,0.537,2.975,0.537h0.332v1.104H614.977z
					 M626.894,163.732h13.845l-6.667-15.229L626.894,163.732z"/>
				<path fill="#1F2022" d="M657.961,177.805v-1.104h0.257c1.93,0,3.246-0.375,3.949-1.127c0.7-0.752,1.048-2.213,1.048-4.385
					v-23.633c0-2.135-0.345-3.496-1.038-4.075c-0.69-0.583-2.087-0.882-4.189-0.898l-0.026-1.104h16.533v1.104h-0.257
					c-1.931,0-3.271,0.364-4.023,1.091c-0.752,0.726-1.126,2.021-1.126,3.883v24.428c0,1.624,0.231,2.64,0.69,3.05
					c0.462,0.41,1.445,0.615,2.949,0.615h6.279c2.702,0,4.922-0.593,6.667-1.78c1.741-1.188,3.141-3.063,4.202-5.625h1.104
					l-2.975,9.561H657.961z"/>
				<path fill="#1F2022" d="M695.36,178.547l-1.999-11.716h1.1c1.267,3.128,2.861,5.563,4.795,7.308
					c1.93,1.742,3.991,2.614,6.178,2.614c1.931,0,3.548-0.615,4.857-1.846c1.305-1.23,1.959-2.767,1.959-4.612
					c0-1.352-0.436-2.611-1.305-3.783c-0.873-1.168-2.223-2.285-4.053-3.346l-5.664-3.435c-2.444-1.436-4.199-2.91-5.267-4.421
					c-1.068-1.514-1.602-3.252-1.602-5.218c0-2.767,0.983-5.026,2.946-6.777c1.966-1.755,4.528-2.63,7.692-2.63
					c1.468,0,3.027,0.273,4.678,0.82c1.647,0.547,2.627,0.82,2.936,0.82c0.391,0,0.703-0.137,0.935-0.41
					c0.231-0.273,0.381-0.684,0.449-1.23h0.947l1.204,10.973h-1.1c-1.045-2.975-2.393-5.237-4.053-6.793
					c-1.657-1.557-3.545-2.334-5.664-2.334c-1.793,0-3.258,0.511-4.395,1.526c-1.139,1.016-1.706,2.327-1.706,3.936
					c0,1.247,0.394,2.383,1.178,3.408c0.788,1.025,2.129,2.109,4.023,3.255l6.309,3.718c2.578,1.556,4.385,3.083,5.42,4.587
					s1.553,3.301,1.553,5.384c0,3.128-1.058,5.628-3.167,7.497c-2.109,1.871-4.944,2.809-8.496,2.809
					c-1.66,0-3.369-0.24-5.127-0.719c-1.761-0.479-2.728-0.717-2.897-0.717c-0.498,0-0.889,0.111-1.178,0.332
					c-0.293,0.222-0.479,0.557-0.566,1H695.36z"/>
			</g>
		</g>
		<g>
			<g>
				<g>
					<g>
						<path fill="#1F2022" d="M736.086,157.986l80.558,1.13c0.179,0,0.329,0.159,0.322,0.374c0,0.199-0.146,0.368-0.322,0.368
							l-80.558,1.12c-0.732,0.016-1.335-0.654-1.338-1.479c-0.017-0.823,0.569-1.504,1.309-1.514
							C736.06,157.986,736.077,157.986,736.086,157.986z"/>
						<path fill="#1F2022" d="M729.905,159.48c0,1.247-0.889,2.24-1.982,2.24s-1.982-0.993-1.982-2.24
							c0-1.233,0.889-2.236,1.982-2.236S729.905,158.247,729.905,159.48z"/>
					</g>
				</g>
				<g>
					<g>
						<path fill="#1F2022" d="M362.14,157.986l-80.563,1.13c-0.183,0-0.332,0.159-0.329,0.374c0.007,0.199,0.15,0.368,0.329,0.368
							l80.563,1.12c0.726,0.016,1.332-0.654,1.338-1.479c0.016-0.823-0.576-1.504-1.309-1.514
							C362.163,157.986,362.144,157.986,362.14,157.986z"/>
						<path fill="#1F2022" d="M368.322,159.48c0,1.247,0.879,2.24,1.982,2.24c1.094,0,1.979-0.993,1.979-2.24
							c0-1.233-0.885-2.236-1.979-2.236C369.201,157.244,368.322,158.247,368.322,159.48z"/>
					</g>
				</g>
			</g>
		</g>
	</g>
	<g>
		<path fill="#278E44" d="M90.404,57.818c-3.164,0-6.012-1.904-7.223-4.828c-1.211-2.916-0.544-6.285,1.692-8.519l-0.026,0.026
			l20.205-20.208l0.029-0.02c3.053-3.057,8.001-3.057,11.053,0l-0.024,0.02l20.259,20.208l0.022-0.026
			c2.236,2.233,2.904,5.603,1.694,8.519c-1.212,2.924-4.059,4.828-7.225,4.828l-0.02,0.049H90.376"/>
		<path fill="#CAB03A" d="M90.404,214.19c-3.164,0-6.012-1.9-7.223-4.824c-1.211-2.926-0.544-6.282,1.692-8.519l-0.026,0.022
			l20.205-20.208l0.029-0.02c3.053-3.057,8.001-3.057,11.053,0l-0.024,0.02l20.259,20.208l0.022-0.022
			c2.236,2.236,2.904,5.593,1.694,8.519c-1.212,2.924-4.059,4.824-7.225,4.824l-0.02,0.053H90.376"/>
		<path fill="#237D3E" d="M105.082,90.563c3.053,3.053,8.001,3.053,11.053,0l-0.024,0.029l27.095-27.041l0.027-0.026
			c3.05-3.054,8-3.054,11.052,0l-0.024,0.026l20.209,20.201l0.024-0.02c2.233,2.233,2.905,5.596,1.698,8.516
			c-1.214,2.923-4.063,4.824-7.225,4.824h-0.026H52.222h0.027c-3.161,0-6.011-1.901-7.222-4.824c-1.209-2.92-0.54-6.282,1.694-8.516
			l-0.027,0.02l20.257-20.201l0.031-0.026c3.05-3.054,7.998-3.054,11.048,0l-0.02,0.026l27.041,27.041"/>
		<path fill="#225D2E" d="M67.707,129.55l-27.046-27.1l0.028-0.02c-3.057-3.054-8.004-3.054-11.06,0l-0.023,0.02L9.348,122.71
			l0.027-0.02c-2.234,2.227-2.903,5.593-1.692,8.516c1.206,2.92,4.058,4.821,7.217,4.821h-0.028h192.971h0.028
			c3.161,0,6.011-1.901,7.223-4.821c1.209-2.923,0.541-6.289-1.696-8.516l-0.021,0.02l-20.207-20.26l0.02-0.02
			c-3.055-3.054-7.997-3.054-11.053,0l-0.027,0.02l-27.095,27.1l0.024-0.033c-3.053,3.057-8.001,3.057-11.055,0l-0.022,0.033
			l-27.046-27.1l0.026-0.02c-3.055-3.054-8.003-3.054-11.057,0l-0.027,0.02l-27.093,27.1l0.024-0.033
			c-3.054,3.057-8.001,3.057-11.057,0"/>
		<path fill="#AF9631" d="M105.082,168.771c3.053,3.053,8.001,3.053,11.053,0l-0.024,0.029l27.095-27.09l0.027-0.026
			c3.05-3.054,8-3.054,11.052,0l-0.024,0.026l20.209,20.25l0.024-0.02c2.233,2.236,2.905,5.6,1.698,8.516
			c-1.214,2.927-4.063,4.828-7.225,4.828h-0.026H52.222h0.027c-3.161,0-6.011-1.901-7.222-4.828
			c-1.209-2.916-0.54-6.279,1.694-8.516l-0.027,0.02l20.257-20.25l0.031-0.026c3.05-3.054,7.998-3.054,11.048,0l-0.02,0.026
			l27.041,27.09"/>
	</g>
</g>
</svg>
