<?xml version="1.0" encoding="utf-8"?>
<!-- Generator: Adobe Illustrator 16.0.0, SVG Export Plug-In . SVG Version: 6.00 Build 0)  -->
<!DOCTYPE svg PUBLIC "-//W3C//DTD SVG 1.1//EN" "http://www.w3.org/Graphics/SVG/1.1/DTD/svg11.dtd">
<svg version="1.1" id="Layer_1" xmlns="http://www.w3.org/2000/svg" xmlns:xlink="http://www.w3.org/1999/xlink" x="0px" y="0px"
	 width="2692.914px" height="566.929px" viewBox="0 0 2692.914 566.929" enable-background="new 0 0 2692.914 566.929"
	 xml:space="preserve">
<g>
	<g>
		<g>
			<path fill="#FFFFFF" d="M158.465,143.712l72.771-73.459c4.597-4.598,8.161-8.967,10.691-13.107
				c2.527-4.137,3.794-7.643,3.794-10.518c0-3.678-2.444-6.352-7.329-8.018c-4.888-1.666-12.562-2.502-23.021-2.502v-8.967H317.8
				v8.967c-11.957,0-23.77,3.164-35.437,9.484c-11.669,6.324-24.459,16.67-38.367,31.039l-39.316,40.352l101.395,125.363
				c4.828,5.863,9.312,9.803,13.45,11.813c4.139,2.012,9.426,3.135,15.864,3.363v9.139H210.026v-9.139
				c10.92,0,18.306-0.66,22.158-1.982c3.851-1.322,5.776-3.594,5.776-6.813c0-1.838-0.775-4.139-2.327-6.896
				c-1.553-2.76-3.824-6.037-6.812-9.83l-61.562-77.6l-8.795,8.105v61.734c0,12.992,2.156,21.641,6.467,25.951
				c4.312,4.313,12.615,6.756,24.918,7.33v9.139H70.867v-9.139c11.839-0.459,19.973-3.045,24.399-7.76
				c4.425-4.713,6.64-13.219,6.64-25.521V67.493c0-11.266-2.271-19.227-6.812-23.883c-4.543-4.656-12.502-7.213-23.883-7.674v-8.795
				H189.85v8.967c-12.532,0.461-20.895,2.703-25.09,6.727c-4.198,4.025-6.295,12.242-6.295,24.658V143.712z"/>
			<path fill="#FFFFFF" d="M318.829,257.177c6.553,0,12.127-2.213,16.727-6.639c4.597-4.424,9.023-11.869,13.278-22.33
				l83.115-206.584h9.484l83.979,199.514c6.553,15.291,11.868,25.119,15.951,29.486c4.079,4.371,9.166,6.553,15.261,6.553v9.484
				H443.848l0.172-9.484c9.886-0.229,17.099-1.492,21.641-3.793c4.54-2.299,6.813-5.863,6.813-10.691
				c0-1.492-0.375-3.563-1.121-6.209c-0.749-2.643-2.271-6.838-4.57-12.588l-10.519-26.729h-78.46l-10.52,25.693
				c-1.495,3.566-2.646,6.959-3.448,10.174c-0.806,3.221-1.207,5.98-1.207,8.279c0,5.404,2.069,9.396,6.208,11.984
				c4.139,2.586,10.691,3.879,19.658,3.879h2.068v9.484h-71.734V257.177z M383.149,182.339h67.424l-34.144-83.463L383.149,182.339z"
				/>
			<path fill="#FFFFFF" d="M655.769,223.206c0,13.105,1.665,21.211,5.001,24.314c3.333,3.104,10.747,4.656,22.244,4.656
				c25.405,0,44.978-5.002,58.716-15.002c13.736-10.002,24.858-27.246,33.367-51.732h9.657l-13.45,81.219H568.169v-9.139
				c11.726-0.346,19.83-2.902,24.313-7.674c4.483-4.77,6.726-13.305,6.726-25.607V67.493c0-11.381-2.242-19.34-6.726-23.883
				c-4.483-4.541-12.475-7.098-23.969-7.674v-8.795h122.95v8.795c-14.372,0.232-23.913,2.328-28.625,6.293
				c-4.716,3.967-7.07,12.391-7.07,25.264V223.206z"/>
			<path fill="#FFFFFF" d="M903.558,27.142c19.658,0,34.574,0.922,44.748,2.76c10.175,1.84,19.168,4.828,26.987,8.967
				c10.002,5.518,17.675,12.904,23.021,22.158c5.346,9.256,8.019,19.631,8.019,31.125c0,20.809-7.732,37.074-23.193,48.801
				c-15.463,11.727-37.048,17.59-64.751,17.59h-31.384v65.699c0,12.992,2.155,21.641,6.466,25.951
				c4.312,4.313,12.615,6.756,24.918,7.33v9.139H799.405v-9.139c11.726-0.346,19.83-2.902,24.313-7.674
				c4.483-4.77,6.726-13.305,6.726-25.607V67.493c0-11.381-2.242-19.34-6.726-23.883c-4.483-4.541-12.475-7.098-23.969-7.674v-8.795
				H903.558z M887.004,145.952h10.174c17.244,0,29.514-3.992,36.815-11.984c7.3-7.988,10.95-21.467,10.95-40.436
				s-3.134-32.648-9.397-41.041c-6.268-8.391-16.469-12.588-30.608-12.588c-6.784,0-11.468,1.236-14.054,3.707
				c-2.587,2.473-3.88,7.043-3.88,13.709V145.952z"/>
			<path fill="#FFFFFF" d="M994.083,257.177c6.553,0,12.127-2.213,16.727-6.639c4.597-4.424,9.023-11.869,13.277-22.33
				l83.116-206.584h9.484l83.979,199.514c6.553,15.291,11.868,25.119,15.951,29.486c4.079,4.371,9.166,6.553,15.261,6.553v9.484
				h-112.776l0.172-9.484c9.886-0.229,17.1-1.492,21.642-3.793c4.54-2.299,6.812-5.863,6.812-10.691
				c0-1.492-0.374-3.563-1.121-6.209c-0.748-2.643-2.271-6.838-4.569-12.588l-10.519-26.729h-78.46l-10.52,25.693
				c-1.495,3.566-2.646,6.959-3.448,10.174c-0.806,3.221-1.207,5.98-1.207,8.279c0,5.404,2.069,9.396,6.208,11.984
				c4.138,2.586,10.691,3.879,19.658,3.879h2.068v9.484h-71.734V257.177z M1058.403,182.339h67.424l-34.144-83.463L1058.403,182.339
				z"/>
			<path fill="#FFFFFF" d="M1331.024,223.206c0,13.105,1.664,21.211,5,24.314c3.333,3.104,10.748,4.656,22.245,4.656
				c25.405,0,44.978-5.002,58.716-15.002c13.735-10.002,24.858-27.246,33.367-51.732h9.656l-13.45,81.219h-203.135v-9.139
				c11.727-0.346,19.831-2.902,24.314-7.674c4.483-4.77,6.725-13.305,6.725-25.607V67.493c0-11.381-2.241-19.34-6.725-23.883
				c-4.483-4.541-12.475-7.098-23.97-7.674v-8.795h122.95v8.795c-14.372,0.232-23.912,2.328-28.625,6.293
				c-4.715,3.967-7.069,12.391-7.069,25.264V223.206z"/>
			<path fill="#FFFFFF" d="M1461.898,257.177c6.553,0,12.127-2.213,16.727-6.639c4.597-4.424,9.023-11.869,13.278-22.33
				l83.115-206.584h9.484l83.979,199.514c6.553,15.291,11.868,25.119,15.951,29.486c4.079,4.371,9.166,6.553,15.261,6.553v9.484
				h-112.775l0.172-9.484c9.886-0.229,17.099-1.492,21.642-3.793c4.54-2.299,6.812-5.863,6.812-10.691
				c0-1.492-0.375-3.563-1.121-6.209c-0.749-2.643-2.271-6.838-4.57-12.588l-10.519-26.729h-78.46l-10.52,25.693
				c-1.495,3.566-2.646,6.959-3.448,10.174c-0.806,3.221-1.207,5.98-1.207,8.279c0,5.404,2.069,9.396,6.208,11.984
				c4.139,2.586,10.691,3.879,19.658,3.879h2.068v9.484h-71.734V257.177z M1526.218,182.339h67.424l-34.144-83.463L1526.218,182.339
				z"/>
			<path fill="#FFFFFF" d="M1711.584,266.661v-9.139c11.839-0.574,19.916-3.191,24.228-7.848c4.311-4.654,6.467-13.363,6.467-26.123
				V72.839c0-14.943-2.129-24.803-6.381-29.574c-4.254-4.768-12.475-7.156-24.659-7.156v-8.967h107.775
				c30.35,0,53.341,4.686,68.976,14.055c15.634,9.371,23.453,23.08,23.453,41.127c0,14.6-4.742,26.383-14.227,35.35
				s-23.942,15.291-43.369,18.969c23.336,4.484,40.723,11.756,52.163,21.813c11.438,10.063,17.158,23.082,17.158,39.059
				c0,21.729-8.363,38.686-25.091,50.869c-16.727,12.188-40.035,18.279-69.924,18.279H1711.584z M1798.839,134.228h3.104
				c18.969,0,32.187-3.621,39.661-10.863c7.472-7.244,11.209-20.004,11.209-38.283c0-16.209-2.875-28.021-8.622-35.436
				c-5.75-7.416-14.89-11.123-27.418-11.123c-7.014,0-11.756,1.354-14.227,4.053c-2.474,2.703-3.707,8.881-3.707,18.537V134.228z
				 M1798.839,145.091v80.529c0,12.188,1.436,19.947,4.311,23.279c2.872,3.336,8.391,5,16.554,5c14.943,0,25.635-4.164,32.074-12.5
				c6.437-8.334,9.657-22.389,9.657-42.162c0-19.771-4.169-33.799-12.503-42.076c-8.336-8.277-22.33-12.416-41.988-12.416
				c-0.806,0-2.129,0.061-3.966,0.174C1801.137,145.034,1799.757,145.091,1798.839,145.091z"/>
			<path fill="#FFFFFF" d="M1953.511,266.661v-9.139c11.149-0.574,18.65-2.76,22.503-6.553c3.851-3.795,5.777-11.611,5.777-23.453
				V69.907c0-13.451-2.129-22.389-6.381-26.814c-4.254-4.424-12.475-6.813-24.659-7.156v-8.795h108.811
				c41.73,0,73.744,10.32,96.049,30.953c22.302,20.637,33.454,50.266,33.454,88.893c0,39.549-10.549,69.381-31.643,89.496
				c-21.098,20.119-52.568,30.178-94.411,30.178H1953.511z M2038.697,228.897c0,10.461,1.436,17.244,4.311,20.348
				c2.872,3.104,8.507,4.654,16.899,4.654c22.762,0,39.688-8.82,50.783-26.469c11.094-17.645,16.641-44.688,16.641-81.133
				c0-35.178-5.69-61.875-17.071-80.098c-11.381-18.221-28.052-27.332-50.008-27.332c-8.622,0-14.372,1.582-17.244,4.742
				c-2.875,3.162-4.311,10.031-4.311,20.607V228.897z"/>
			<path fill="#FFFFFF" d="M2218.717,266.661v-9.139c11.727-0.346,19.83-2.902,24.314-7.674c4.482-4.77,6.725-13.305,6.725-25.607
				V67.493c0-11.381-2.242-19.34-6.725-23.883c-4.484-4.541-12.475-7.098-23.97-7.674v-8.795h118.639v8.967
				c-12.531,0.461-20.895,2.703-25.09,6.727c-4.198,4.025-6.294,12.242-6.294,24.658v67.424h83.979V67.493
				c0-12.416-2.043-20.607-6.121-24.572c-4.082-3.967-12.502-6.234-25.264-6.813v-8.967h118.295v8.795
				c-11.842,0.922-19.86,3.479-24.056,7.674c-4.198,4.197-6.294,12.156-6.294,23.883v156.748c0,12.07,2.269,20.549,6.812,25.434
				c4.54,4.889,12.385,7.502,23.538,7.848v9.139h-118.295v-9.139c12.529-0.574,20.893-2.988,25.091-7.242
				c4.195-4.252,6.294-12.934,6.294-26.039v-73.805h-83.979v73.805c0,12.992,2.156,21.641,6.467,25.951
				c4.311,4.313,12.615,6.756,24.917,7.33v9.139H2218.717z"/>
			<path fill="#FFFFFF" d="M2621.185,27.142v8.967c-13.105,0.578-21.786,2.674-26.038,6.295c-4.255,3.621-6.381,10.547-6.381,20.779
				v162.783c0,11.611,2.269,19.484,6.812,23.625c4.54,4.137,13.364,6.783,26.47,7.932v9.139h-122.26v-9.139
				c12.645-1.264,21.21-3.938,25.693-8.02c4.483-4.078,6.726-11.523,6.726-22.33V63.183c0-10.232-2.185-17.215-6.553-20.953
				c-4.37-3.732-12.992-5.832-25.866-6.293v-8.795H2621.185z"/>
		</g>
		<g>
			<path fill="#FFFFFF" d="M610.93,541.647l0.111-4.768c9.606-0.369,15.854-1.846,18.736-4.434
				c2.882-2.588,4.323-8.131,4.323-16.631V410.604c0-8.203-1.591-13.764-4.768-16.684c-3.179-2.92-9.313-4.379-18.403-4.379v-4.99
				h130.376l2.439,37.029h-4.768c-1.773-10.568-5.082-17.83-9.922-21.785c-4.842-3.953-12.954-5.932-24.335-5.932h-33.37
				c-4.656,0-7.871,0.832-9.645,2.494c-1.774,1.664-2.661,4.602-2.661,8.814v42.461c0,3.549,0.443,5.766,1.33,6.652
				s2.883,1.33,5.987,1.33h20.842c11.974,0,19.9-1.553,23.78-4.656c3.881-3.104,5.821-8.98,5.821-17.627h4.767v55.652h-4.767
				c-0.666-9.828-2.661-16.295-5.987-19.4c-3.326-3.104-11.197-4.656-23.614-4.656h-21.063c-2.735,0-4.602,0.48-5.6,1.441
				c-0.997,0.961-1.496,2.734-1.496,5.32v43.57c0,8.279,1.699,13.914,5.1,16.906c3.398,2.994,10.014,4.564,19.845,4.713l0.11,4.768
				H610.93z"/>
			<path fill="#FFFFFF" d="M758.375,541.647v-4.768c9.163-0.221,15.3-1.719,18.403-4.49s4.656-8.297,4.656-16.574V410.384
				c0-8.055-1.59-13.525-4.768-16.408c-3.179-2.883-9.276-4.434-18.292-4.656v-4.768h71.507l-0.11,4.768
				c-9.313,0.371-15.484,1.959-18.515,4.768c-3.031,2.809-4.545,8.242-4.545,16.297v105.432c0,8.131,1.569,13.619,4.711,16.463
				c3.141,2.848,9.258,4.381,18.349,4.602l0.11,4.768H758.375z"/>
			<path fill="#FFFFFF" d="M880.21,515.261c0,8.723,1.441,14.34,4.324,16.852c2.882,2.514,9.017,4.104,18.403,4.768v4.768h-56.541
				v-4.768c9.386-0.664,15.521-2.254,18.403-4.768c2.883-2.512,4.324-8.129,4.324-16.852V405.396
				c-3.032-5.248-6.339-9.129-9.923-11.643c-3.586-2.51-7.854-3.99-12.805-4.434v-4.768h40.466l93.015,111.641v-85.365
				c0-8.721-1.424-14.338-4.268-16.852c-2.847-2.512-8.925-4.064-18.237-4.656v-4.768h56.319v4.768
				c-9.313,0.592-15.41,2.145-18.293,4.656c-2.883,2.514-4.324,8.131-4.324,16.852v130.82h-4.767L880.21,414.929V515.261z"/>
			<path fill="#FFFFFF" d="M1019.895,541.647v-4.768c5.025-0.072,9.219-1.514,12.583-4.324c3.362-2.807,6.891-8.092,10.588-15.854
				l64.412-134.922h5.433l62.527,137.361c1.478,3.326,3.011,6.152,4.601,8.48c1.589,2.328,3.232,4.195,4.934,5.6
				c1.552,1.404,3.326,2.402,5.321,2.994c1.996,0.592,4.508,0.887,7.539,0.887v4.545h-65.521v-4.768
				c6.577-0.148,11.122-0.979,13.636-2.494c2.512-1.514,3.77-4.084,3.77-7.705c0-1.182-0.13-2.365-0.388-3.547
				c-0.26-1.182-0.648-2.365-1.165-3.549l-13.192-29.711h-67.184l-11.087,24.943c-1.257,2.811-2.181,5.248-2.771,7.316
				c-0.592,2.07-0.887,3.809-0.887,5.213c0,3.252,1.367,5.652,4.102,7.205s7.021,2.328,12.86,2.328h1.441v4.768H1019.895z
				 M1071.447,480.782h59.867l-28.825-65.854L1071.447,480.782z"/>
			<path fill="#FFFFFF" d="M1238.515,515.261c0,8.723,1.441,14.34,4.324,16.852c2.882,2.514,9.017,4.104,18.403,4.768v4.768h-56.541
				v-4.768c9.386-0.664,15.521-2.254,18.404-4.768c2.882-2.512,4.323-8.129,4.323-16.852V405.396
				c-3.031-5.248-6.339-9.129-9.923-11.643c-3.585-2.51-7.854-3.99-12.805-4.434v-4.768h40.466l93.015,111.641v-85.365
				c0-8.721-1.424-14.338-4.268-16.852c-2.847-2.512-8.925-4.064-18.237-4.656v-4.768h56.319v4.768
				c-9.313,0.592-15.41,2.145-18.293,4.656c-2.883,2.514-4.324,8.131-4.324,16.852v130.82h-4.767l-106.098-126.719V515.261z"/>
			<path fill="#FFFFFF" d="M1534.63,505.282l3.88,4.104c-8.722,12.123-18.569,21.139-29.545,27.051
				c-10.977,5.912-23.375,8.869-37.195,8.869c-24.761,0-44.623-7.41-59.59-22.229s-22.45-34.424-22.45-58.813
				c0-24.316,7.797-44.254,23.393-59.813c15.594-15.557,35.588-23.336,59.978-23.336c9.313,0,18.938,1.516,28.88,4.545
				c9.939,3.031,15.502,4.545,16.686,4.545c2.217,0,4.027-0.738,5.433-2.217c1.403-1.479,2.106-3.398,2.106-5.766h4.323
				l4.546,50.887h-4.768c-4.435-14.264-11.161-25.092-20.178-32.482c-9.018-7.391-19.993-11.086-32.926-11.086
				c-18.109,0-32.705,6.725-43.792,20.176c-11.086,13.453-16.63,31.229-16.63,53.326c0,21.213,5.524,38.6,16.574,52.162
				c11.049,13.564,25.184,20.344,42.406,20.344c11.898,0,22.486-2.385,31.763-7.152
				C1516.798,523.632,1525.833,515.927,1534.63,505.282z"/>
			<path fill="#FFFFFF" d="M1552.142,541.647v-4.768c9.163-0.221,15.299-1.719,18.403-4.49c3.104-2.771,4.656-8.297,4.656-16.574
				V410.384c0-8.055-1.591-13.525-4.768-16.408c-3.179-2.883-9.276-4.434-18.292-4.656v-4.768h71.507l-0.11,4.768
				c-9.313,0.371-15.484,1.959-18.515,4.768c-3.031,2.809-4.545,8.242-4.545,16.297v105.432c0,8.131,1.569,13.619,4.711,16.463
				c3.141,2.848,9.258,4.381,18.349,4.602l0.11,4.768H1552.142z"/>
			<path fill="#FFFFFF" d="M1634.509,541.647v-4.768c5.025-0.072,9.219-1.514,12.583-4.324c3.362-2.807,6.891-8.092,10.588-15.854
				l64.412-134.922h5.433l62.527,137.361c1.478,3.326,3.011,6.152,4.601,8.48c1.589,2.328,3.232,4.195,4.934,5.6
				c1.553,1.404,3.326,2.402,5.321,2.994c1.996,0.592,4.508,0.887,7.539,0.887v4.545h-65.521v-4.768
				c6.577-0.148,11.122-0.979,13.636-2.494c2.512-1.514,3.77-4.084,3.77-7.705c0-1.182-0.13-2.365-0.388-3.547
				c-0.26-1.182-0.648-2.365-1.165-3.549l-13.192-29.711h-67.184l-11.087,24.943c-1.257,2.811-2.181,5.248-2.771,7.316
				c-0.592,2.07-0.887,3.809-0.887,5.213c0,3.252,1.367,5.652,4.102,7.205s7.021,2.328,12.86,2.328h1.441v4.768H1634.509z
				 M1686.061,480.782h59.867l-28.825-65.854L1686.061,480.782z"/>
			<path fill="#FFFFFF" d="M1820.424,541.647v-4.768h1.108c8.352,0,14.042-1.625,17.073-4.877c3.029-3.252,4.545-9.572,4.545-18.959
				V410.827c0-9.238-1.496-15.113-4.489-17.627c-2.993-2.512-9.035-3.807-18.126-3.881l-0.111-4.768h71.507v4.768h-1.108
				c-8.353,0-14.153,1.57-17.405,4.713c-3.253,3.141-4.878,8.74-4.878,16.795v105.654c0,7.021,0.998,11.418,2.993,13.191
				c1.996,1.775,6.245,2.662,12.75,2.662h27.161c11.678,0,21.286-2.568,28.824-7.707c7.539-5.135,13.599-13.246,18.183-24.334h4.767
				l-12.86,41.354H1820.424z"/>
			<path fill="#FFFFFF" d="M1982.171,544.862l-8.647-50.666h4.767c5.469,13.525,12.379,24.059,20.731,31.598
				c8.352,7.539,17.257,11.309,26.719,11.309c8.351,0,15.354-2.662,21.009-7.982c5.654-5.322,8.482-11.975,8.482-19.957
				c0-5.838-1.886-11.289-5.655-16.352s-9.609-9.885-17.517-14.469l-24.501-14.855c-10.57-6.209-18.164-12.582-22.783-19.125
				c-4.619-6.539-6.929-14.061-6.929-22.559c0-11.975,4.249-21.748,12.749-29.324c8.499-7.576,19.586-11.363,33.26-11.363
				c6.355,0,13.1,1.182,20.232,3.547c7.133,2.367,11.364,3.549,12.694,3.549c1.699,0,3.049-0.592,4.046-1.775
				c0.998-1.182,1.645-2.955,1.941-5.32h4.102l5.209,47.449h-4.766c-4.509-12.861-10.349-22.652-17.517-29.379
				c-7.17-6.725-15.338-10.088-24.501-10.088c-7.761,0-14.1,2.199-19.014,6.596c-4.916,4.398-7.372,10.07-7.372,17.018
				c0,5.395,1.699,10.311,5.1,14.744c3.398,4.436,9.202,9.129,17.406,14.08l27.272,16.076c11.16,6.725,18.975,13.342,23.448,19.844
				c4.47,6.506,6.707,14.266,6.707,23.281c0,13.525-4.564,24.336-13.692,32.428c-9.129,8.094-21.38,12.141-36.751,12.141
				c-7.17,0-14.562-1.037-22.174-3.105c-7.613-2.066-11.789-3.104-12.527-3.104c-2.145,0-3.844,0.482-5.1,1.441
				c-1.258,0.963-2.07,2.4-2.438,4.324H1982.171z"/>
		</g>
	</g>
	<g>
		<g>
			<g>
				<g>
					<path fill="#FFFFFF" d="M2158.312,455.94l348.421,4.879c0.774,0,1.423,0.695,1.394,1.625c0,0.852-0.639,1.588-1.394,1.588
						l-348.421,4.838c-3.173,0.078-5.767-2.826-5.787-6.389c-0.069-3.561,2.458-6.504,5.653-6.541
						C2158.196,455.94,2158.274,455.94,2158.312,455.94z"/>
					<path fill="#FFFFFF" d="M2131.57,462.405c0,5.381-3.831,9.68-8.575,9.68c-4.723,0-8.566-4.299-8.566-9.68
						c0-5.344,3.844-9.68,8.566-9.68C2127.739,452.726,2131.57,457.062,2131.57,462.405z"/>
				</g>
			</g>
			<g>
				<g>
					<path fill="#FFFFFF" d="M540.997,455.94l-348.421,4.879c-0.793,0-1.441,0.695-1.421,1.625c0.018,0.852,0.648,1.588,1.421,1.588
						l348.421,4.838c3.146,0.078,5.759-2.826,5.788-6.389c0.067-3.561-2.487-6.504-5.652-6.541
						C541.103,455.94,541.016,455.94,540.997,455.94z"/>
					<path fill="#FFFFFF" d="M567.738,462.405c0,5.381,3.805,9.68,8.576,9.68c4.722,0,8.556-4.299,8.556-9.68
						c0-5.344-3.834-9.68-8.556-9.68C571.542,452.726,567.738,457.062,567.738,462.405z"/>
				</g>
			</g>
		</g>
	</g>
</g>
</svg>
